<mxfile host="65bd71144e">
    <diagram id="l0ba4gm8rq2NGziQEH8P" name="ページ3">
        <mxGraphModel dx="925" dy="419" grid="0" gridSize="10" guides="1" tooltips="1" connect="1" arrows="1" fold="1" page="0" pageScale="1" pageWidth="827" pageHeight="1169" math="0" shadow="0">
            <root>
                <mxCell id="0"/>
                <mxCell id="1" parent="0"/>
                <mxCell id="houy_Up9C2UZ-9tv4yLi-1" value="" style="shape=umlLifeline;perimeter=lifelinePerimeter;whiteSpace=wrap;html=1;container=1;dropTarget=0;collapsible=0;recursiveResize=0;outlineConnect=0;portConstraint=eastwest;newEdgeStyle={&quot;curved&quot;:0,&quot;rounded&quot;:0};participant=umlActor;" parent="1" vertex="1">
                    <mxGeometry x="9" y="25" width="20" height="618" as="geometry"/>
                </mxCell>
                <mxCell id="houy_Up9C2UZ-9tv4yLi-2" value="Product&lt;br&gt;Category&lt;br&gt;&lt;div&gt;Controller&lt;/div&gt;" style="shape=umlLifeline;perimeter=lifelinePerimeter;whiteSpace=wrap;html=1;container=1;dropTarget=0;collapsible=0;recursiveResize=0;outlineConnect=0;portConstraint=eastwest;newEdgeStyle={&quot;curved&quot;:0,&quot;rounded&quot;:0};" parent="1" vertex="1">
                    <mxGeometry x="63" y="15" width="100" height="632" as="geometry"/>
                </mxCell>
                <mxCell id="houy_Up9C2UZ-9tv4yLi-35" value="" style="html=1;points=[[0,0,0,0,5],[0,1,0,0,-5],[1,0,0,0,5],[1,1,0,0,-5]];perimeter=orthogonalPerimeter;outlineConnect=0;targetShapes=umlLifeline;portConstraint=eastwest;newEdgeStyle={&quot;curved&quot;:0,&quot;rounded&quot;:0};" parent="houy_Up9C2UZ-9tv4yLi-2" vertex="1">
                    <mxGeometry x="48" y="84" width="10" height="118" as="geometry"/>
                </mxCell>
                <mxCell id="houy_Up9C2UZ-9tv4yLi-47" value="" style="html=1;points=[[0,0,0,0,5],[0,1,0,0,-5],[1,0,0,0,5],[1,1,0,0,-5]];perimeter=orthogonalPerimeter;outlineConnect=0;targetShapes=umlLifeline;portConstraint=eastwest;newEdgeStyle={&quot;curved&quot;:0,&quot;rounded&quot;:0};" parent="houy_Up9C2UZ-9tv4yLi-2" vertex="1">
                    <mxGeometry x="45" y="277" width="10" height="172" as="geometry"/>
                </mxCell>
                <mxCell id="houy_Up9C2UZ-9tv4yLi-56" value="" style="html=1;points=[[0,0,0,0,5],[0,1,0,0,-5],[1,0,0,0,5],[1,1,0,0,-5]];perimeter=orthogonalPerimeter;outlineConnect=0;targetShapes=umlLifeline;portConstraint=eastwest;newEdgeStyle={&quot;curved&quot;:0,&quot;rounded&quot;:0};" parent="houy_Up9C2UZ-9tv4yLi-2" vertex="1">
                    <mxGeometry x="45" y="490" width="10" height="80" as="geometry"/>
                </mxCell>
                <mxCell id="houy_Up9C2UZ-9tv4yLi-10" value="Product&lt;br&gt;Category&lt;br&gt;&lt;div&gt;Service&lt;/div&gt;" style="shape=umlLifeline;perimeter=lifelinePerimeter;whiteSpace=wrap;html=1;container=1;dropTarget=0;collapsible=0;recursiveResize=0;outlineConnect=0;portConstraint=eastwest;newEdgeStyle={&quot;curved&quot;:0,&quot;rounded&quot;:0};" parent="1" vertex="1">
                    <mxGeometry x="356" y="15" width="68" height="640" as="geometry"/>
                </mxCell>
                <mxCell id="houy_Up9C2UZ-9tv4yLi-53" value="" style="html=1;points=[[0,0,0,0,5],[0,1,0,0,-5],[1,0,0,0,5],[1,1,0,0,-5]];perimeter=orthogonalPerimeter;outlineConnect=0;targetShapes=umlLifeline;portConstraint=eastwest;newEdgeStyle={&quot;curved&quot;:0,&quot;rounded&quot;:0};" parent="houy_Up9C2UZ-9tv4yLi-10" vertex="1">
                    <mxGeometry x="29" y="349" width="10" height="80" as="geometry"/>
                </mxCell>
                <mxCell id="houy_Up9C2UZ-9tv4yLi-14" value="Product&lt;div&gt;Category&lt;/div&gt;&lt;div&gt;Repository&lt;/div&gt;" style="shape=umlLifeline;perimeter=lifelinePerimeter;whiteSpace=wrap;html=1;container=1;dropTarget=0;collapsible=0;recursiveResize=0;outlineConnect=0;portConstraint=eastwest;newEdgeStyle={&quot;curved&quot;:0,&quot;rounded&quot;:0};" parent="1" vertex="1">
                    <mxGeometry x="462" y="15" width="100" height="634" as="geometry"/>
                </mxCell>
                <mxCell id="houy_Up9C2UZ-9tv4yLi-22" value="Product&lt;br&gt;Category&lt;br&gt;&lt;div&gt;Form&lt;/div&gt;" style="shape=umlLifeline;perimeter=lifelinePerimeter;whiteSpace=wrap;html=1;container=1;dropTarget=0;collapsible=0;recursiveResize=0;outlineConnect=0;portConstraint=eastwest;newEdgeStyle={&quot;curved&quot;:0,&quot;rounded&quot;:0};" parent="1" vertex="1">
                    <mxGeometry x="202" y="15" width="57" height="632" as="geometry"/>
                </mxCell>
                <mxCell id="houy_Up9C2UZ-9tv4yLi-38" value="" style="html=1;points=[[0,0,0,0,5],[0,1,0,0,-5],[1,0,0,0,5],[1,1,0,0,-5]];perimeter=orthogonalPerimeter;outlineConnect=0;targetShapes=umlLifeline;portConstraint=eastwest;newEdgeStyle={&quot;curved&quot;:0,&quot;rounded&quot;:0};" parent="houy_Up9C2UZ-9tv4yLi-22" vertex="1">
                    <mxGeometry x="23.5" y="109" width="10" height="79" as="geometry"/>
                </mxCell>
                <mxCell id="houy_Up9C2UZ-9tv4yLi-23" value="Product&lt;br&gt;Category&lt;br&gt;&lt;div&gt;Helper&lt;/div&gt;" style="shape=umlLifeline;perimeter=lifelinePerimeter;whiteSpace=wrap;html=1;container=1;dropTarget=0;collapsible=0;recursiveResize=0;outlineConnect=0;portConstraint=eastwest;newEdgeStyle={&quot;curved&quot;:0,&quot;rounded&quot;:0};" parent="1" vertex="1">
                    <mxGeometry x="278" y="15" width="57" height="631" as="geometry"/>
                </mxCell>
                <mxCell id="2" style="edgeStyle=none;html=1;curved=0;rounded=0;exitX=0;exitY=0;exitDx=0;exitDy=5;exitPerimeter=0;" edge="1" parent="houy_Up9C2UZ-9tv4yLi-23" source="houy_Up9C2UZ-9tv4yLi-50" target="houy_Up9C2UZ-9tv4yLi-23">
                    <mxGeometry relative="1" as="geometry"/>
                </mxCell>
                <mxCell id="houy_Up9C2UZ-9tv4yLi-50" value="" style="html=1;points=[[0,0,0,0,5],[0,1,0,0,-5],[1,0,0,0,5],[1,1,0,0,-5]];perimeter=orthogonalPerimeter;outlineConnect=0;targetShapes=umlLifeline;portConstraint=eastwest;newEdgeStyle={&quot;curved&quot;:0,&quot;rounded&quot;:0};" parent="houy_Up9C2UZ-9tv4yLi-23" vertex="1">
                    <mxGeometry x="23.5" y="293" width="10" height="31" as="geometry"/>
                </mxCell>
                <mxCell id="houy_Up9C2UZ-9tv4yLi-26" value="Product&lt;div&gt;Repository&lt;/div&gt;" style="shape=umlLifeline;perimeter=lifelinePerimeter;whiteSpace=wrap;html=1;container=1;dropTarget=0;collapsible=0;recursiveResize=0;outlineConnect=0;portConstraint=eastwest;newEdgeStyle={&quot;curved&quot;:0,&quot;rounded&quot;:0};" parent="1" vertex="1">
                    <mxGeometry x="583" y="15" width="100" height="633" as="geometry"/>
                </mxCell>
                <mxCell id="3" style="edgeStyle=none;html=1;curved=0;rounded=0;exitX=0;exitY=0;exitDx=0;exitDy=5;exitPerimeter=0;" edge="1" parent="houy_Up9C2UZ-9tv4yLi-26" source="houy_Up9C2UZ-9tv4yLi-62" target="houy_Up9C2UZ-9tv4yLi-26">
                    <mxGeometry relative="1" as="geometry"/>
                </mxCell>
                <mxCell id="houy_Up9C2UZ-9tv4yLi-62" value="" style="html=1;points=[[0,0,0,0,5],[0,1,0,0,-5],[1,0,0,0,5],[1,1,0,0,-5]];perimeter=orthogonalPerimeter;outlineConnect=0;targetShapes=umlLifeline;portConstraint=eastwest;newEdgeStyle={&quot;curved&quot;:0,&quot;rounded&quot;:0};" parent="houy_Up9C2UZ-9tv4yLi-26" vertex="1">
                    <mxGeometry x="45" y="367" width="10" height="43" as="geometry"/>
                </mxCell>
                <mxCell id="houy_Up9C2UZ-9tv4yLi-33" value="DataBase" style="shape=umlLifeline;perimeter=lifelinePerimeter;whiteSpace=wrap;html=1;container=1;dropTarget=0;collapsible=0;recursiveResize=0;outlineConnect=0;portConstraint=eastwest;newEdgeStyle={&quot;curved&quot;:0,&quot;rounded&quot;:0};" parent="1" vertex="1">
                    <mxGeometry x="697" y="14" width="100" height="635" as="geometry"/>
                </mxCell>
                <mxCell id="houy_Up9C2UZ-9tv4yLi-65" value="" style="html=1;points=[[0,0,0,0,5],[0,1,0,0,-5],[1,0,0,0,5],[1,1,0,0,-5]];perimeter=orthogonalPerimeter;outlineConnect=0;targetShapes=umlLifeline;portConstraint=eastwest;newEdgeStyle={&quot;curved&quot;:0,&quot;rounded&quot;:0};" parent="houy_Up9C2UZ-9tv4yLi-33" vertex="1">
                    <mxGeometry x="45" y="371" width="10" height="29" as="geometry"/>
                </mxCell>
                <mxCell id="houy_Up9C2UZ-9tv4yLi-36" value="confirm()" style="html=1;verticalAlign=bottom;endArrow=block;curved=0;rounded=0;entryX=0;entryY=0;entryDx=0;entryDy=5;fontSize=12;startSize=8;endSize=8;" parent="1" source="houy_Up9C2UZ-9tv4yLi-1" target="houy_Up9C2UZ-9tv4yLi-35" edge="1">
                    <mxGeometry relative="1" as="geometry">
                        <mxPoint x="38" y="432" as="sourcePoint"/>
                    </mxGeometry>
                </mxCell>
                <mxCell id="houy_Up9C2UZ-9tv4yLi-37" value="確認画面" style="html=1;verticalAlign=bottom;endArrow=open;dashed=1;endSize=8;curved=0;rounded=0;exitX=0;exitY=1;exitDx=0;exitDy=-5;fontSize=12;" parent="1" source="houy_Up9C2UZ-9tv4yLi-35" target="houy_Up9C2UZ-9tv4yLi-1" edge="1">
                    <mxGeometry relative="1" as="geometry">
                        <mxPoint x="38" y="502" as="targetPoint"/>
                    </mxGeometry>
                </mxCell>
                <mxCell id="houy_Up9C2UZ-9tv4yLi-40" value="ProductCategory&lt;div&gt;Form&lt;/div&gt;" style="html=1;verticalAlign=bottom;endArrow=open;dashed=1;endSize=8;curved=0;rounded=0;exitX=0;exitY=1;exitDx=0;exitDy=-5;fontSize=12;" parent="1" edge="1">
                    <mxGeometry relative="1" as="geometry">
                        <mxPoint x="123" y="184" as="targetPoint"/>
                        <mxPoint x="222.5" y="184" as="sourcePoint"/>
                    </mxGeometry>
                </mxCell>
                <mxCell id="houy_Up9C2UZ-9tv4yLi-39" value="セット" style="html=1;verticalAlign=bottom;endArrow=block;curved=0;rounded=0;entryX=0;entryY=0;entryDx=0;entryDy=5;fontSize=12;startSize=8;endSize=8;" parent="1" target="houy_Up9C2UZ-9tv4yLi-38" edge="1">
                    <mxGeometry relative="1" as="geometry">
                        <mxPoint x="126" y="129" as="sourcePoint"/>
                    </mxGeometry>
                </mxCell>
                <mxCell id="houy_Up9C2UZ-9tv4yLi-42" value="バリデート" style="html=1;align=left;spacingLeft=2;endArrow=block;rounded=0;edgeStyle=orthogonalEdgeStyle;curved=0;rounded=0;fontSize=12;startSize=8;endSize=8;" parent="1" edge="1">
                    <mxGeometry x="0.2105" y="9" relative="1" as="geometry">
                        <mxPoint x="237" y="168" as="sourcePoint"/>
                        <Array as="points">
                            <mxPoint x="268" y="168"/>
                            <mxPoint x="268" y="190"/>
                        </Array>
                        <mxPoint x="245" y="190" as="targetPoint"/>
                        <mxPoint as="offset"/>
                    </mxGeometry>
                </mxCell>
                <mxCell id="houy_Up9C2UZ-9tv4yLi-43" value="" style="shape=link;html=1;rounded=0;fontSize=12;startSize=8;endSize=8;curved=1;" parent="1" target="houy_Up9C2UZ-9tv4yLi-33" edge="1">
                    <mxGeometry width="100" relative="1" as="geometry">
                        <mxPoint x="14" y="253" as="sourcePoint"/>
                        <mxPoint x="743.5" y="253" as="targetPoint"/>
                    </mxGeometry>
                </mxCell>
                <mxCell id="houy_Up9C2UZ-9tv4yLi-49" value="リダイレクト" style="html=1;verticalAlign=bottom;endArrow=open;dashed=1;endSize=8;curved=0;rounded=0;exitX=0;exitY=1;exitDx=0;exitDy=-5;fontSize=12;" parent="1" source="houy_Up9C2UZ-9tv4yLi-47" target="houy_Up9C2UZ-9tv4yLi-1" edge="1">
                    <mxGeometry relative="1" as="geometry">
                        <mxPoint x="6" y="697" as="targetPoint"/>
                    </mxGeometry>
                </mxCell>
                <mxCell id="houy_Up9C2UZ-9tv4yLi-48" value="execute()" style="html=1;verticalAlign=bottom;endArrow=block;curved=0;rounded=0;entryX=0;entryY=0;entryDx=0;entryDy=5;fontSize=12;startSize=8;endSize=8;" parent="1" source="houy_Up9C2UZ-9tv4yLi-1" target="houy_Up9C2UZ-9tv4yLi-47" edge="1">
                    <mxGeometry relative="1" as="geometry">
                        <mxPoint x="45" y="616" as="sourcePoint"/>
                    </mxGeometry>
                </mxCell>
                <mxCell id="houy_Up9C2UZ-9tv4yLi-51" value="Entityに変換" style="html=1;verticalAlign=bottom;endArrow=block;curved=0;rounded=0;entryX=0;entryY=0;entryDx=0;entryDy=5;fontSize=12;startSize=8;endSize=8;" parent="1" source="houy_Up9C2UZ-9tv4yLi-2" target="houy_Up9C2UZ-9tv4yLi-50" edge="1">
                    <mxGeometry relative="1" as="geometry">
                        <mxPoint x="230" y="627" as="sourcePoint"/>
                    </mxGeometry>
                </mxCell>
                <mxCell id="houy_Up9C2UZ-9tv4yLi-52" value="ProductCategory" style="html=1;verticalAlign=bottom;endArrow=open;dashed=1;endSize=8;curved=0;rounded=0;exitX=0;exitY=1;exitDx=0;exitDy=-5;fontSize=12;" parent="1" source="houy_Up9C2UZ-9tv4yLi-50" target="houy_Up9C2UZ-9tv4yLi-2" edge="1">
                    <mxGeometry relative="1" as="geometry">
                        <mxPoint x="230" y="697" as="targetPoint"/>
                    </mxGeometry>
                </mxCell>
                <mxCell id="houy_Up9C2UZ-9tv4yLi-54" value="&lt;br&gt;&lt;div&gt;&lt;br&gt;&lt;/div&gt;" style="html=1;verticalAlign=bottom;endArrow=block;curved=0;rounded=0;entryX=0;entryY=0;entryDx=0;entryDy=5;fontSize=12;startSize=8;endSize=8;" parent="1" source="houy_Up9C2UZ-9tv4yLi-2" target="houy_Up9C2UZ-9tv4yLi-53" edge="1">
                    <mxGeometry relative="1" as="geometry">
                        <mxPoint x="315" y="681" as="sourcePoint"/>
                    </mxGeometry>
                </mxCell>
                <mxCell id="houy_Up9C2UZ-9tv4yLi-61" value="addProductCategory(ProductCategory)" style="edgeLabel;html=1;align=center;verticalAlign=middle;resizable=0;points=[];fontSize=12;" parent="houy_Up9C2UZ-9tv4yLi-54" vertex="1" connectable="0">
                    <mxGeometry x="0.0043" y="8" relative="1" as="geometry">
                        <mxPoint as="offset"/>
                    </mxGeometry>
                </mxCell>
                <mxCell id="houy_Up9C2UZ-9tv4yLi-55" value="void" style="html=1;verticalAlign=bottom;endArrow=open;dashed=1;endSize=8;curved=0;rounded=0;exitX=0;exitY=1;exitDx=0;exitDy=-5;fontSize=12;" parent="1" edge="1">
                    <mxGeometry relative="1" as="geometry">
                        <mxPoint x="113" y="404" as="targetPoint"/>
                        <mxPoint x="385.5" y="404" as="sourcePoint"/>
                    </mxGeometry>
                </mxCell>
                <mxCell id="houy_Up9C2UZ-9tv4yLi-57" value="complete()" style="html=1;verticalAlign=bottom;endArrow=block;curved=0;rounded=0;entryX=0;entryY=0;entryDx=0;entryDy=5;fontSize=12;startSize=8;endSize=8;" parent="1" source="houy_Up9C2UZ-9tv4yLi-1" target="houy_Up9C2UZ-9tv4yLi-56" edge="1">
                    <mxGeometry relative="1" as="geometry">
                        <mxPoint x="38" y="839" as="sourcePoint"/>
                    </mxGeometry>
                </mxCell>
                <mxCell id="houy_Up9C2UZ-9tv4yLi-58" value="完了画面" style="html=1;verticalAlign=bottom;endArrow=open;dashed=1;endSize=8;curved=0;rounded=0;exitX=0;exitY=1;exitDx=0;exitDy=-5;fontSize=12;" parent="1" source="houy_Up9C2UZ-9tv4yLi-56" target="houy_Up9C2UZ-9tv4yLi-1" edge="1">
                    <mxGeometry relative="1" as="geometry">
                        <mxPoint x="38" y="909" as="targetPoint"/>
                    </mxGeometry>
                </mxCell>
                <mxCell id="houy_Up9C2UZ-9tv4yLi-60" value="セッション破棄" style="html=1;align=left;spacingLeft=2;endArrow=block;rounded=0;edgeStyle=orthogonalEdgeStyle;curved=0;rounded=0;fontSize=12;startSize=8;endSize=8;" parent="1" edge="1">
                    <mxGeometry x="-0.575" y="11" relative="1" as="geometry">
                        <mxPoint x="118" y="532" as="sourcePoint"/>
                        <Array as="points">
                            <mxPoint x="121" y="532"/>
                            <mxPoint x="151" y="532"/>
                            <mxPoint x="151" y="554"/>
                        </Array>
                        <mxPoint x="126" y="554" as="targetPoint"/>
                        <mxPoint as="offset"/>
                    </mxGeometry>
                </mxCell>
                <mxCell id="houy_Up9C2UZ-9tv4yLi-63" value="insert(ProductCategory)" style="html=1;verticalAlign=bottom;endArrow=block;curved=0;rounded=0;entryX=0;entryY=0;entryDx=0;entryDy=5;fontSize=12;startSize=8;endSize=8;" parent="1" source="houy_Up9C2UZ-9tv4yLi-10" target="houy_Up9C2UZ-9tv4yLi-62" edge="1">
                    <mxGeometry relative="1" as="geometry">
                        <mxPoint x="557" y="701" as="sourcePoint"/>
                    </mxGeometry>
                </mxCell>
                <mxCell id="houy_Up9C2UZ-9tv4yLi-64" value="void" style="html=1;verticalAlign=bottom;endArrow=open;dashed=1;endSize=8;curved=0;rounded=0;exitX=0;exitY=1;exitDx=0;exitDy=-5;fontSize=12;" parent="1" source="houy_Up9C2UZ-9tv4yLi-62" target="houy_Up9C2UZ-9tv4yLi-10" edge="1">
                    <mxGeometry relative="1" as="geometry">
                        <mxPoint x="557" y="771" as="targetPoint"/>
                    </mxGeometry>
                </mxCell>
                <mxCell id="houy_Up9C2UZ-9tv4yLi-67" value="void" style="html=1;verticalAlign=bottom;endArrow=open;dashed=1;endSize=8;curved=0;rounded=0;exitX=0;exitY=1;exitDx=0;exitDy=-5;fontSize=12;" parent="1" source="houy_Up9C2UZ-9tv4yLi-65" edge="1">
                    <mxGeometry relative="1" as="geometry">
                        <mxPoint x="637" y="407" as="targetPoint"/>
                    </mxGeometry>
                </mxCell>
                <mxCell id="houy_Up9C2UZ-9tv4yLi-66" value="SQL(INSERT)" style="html=1;verticalAlign=bottom;endArrow=block;curved=0;rounded=0;entryX=0;entryY=0;entryDx=0;entryDy=5;fontSize=12;startSize=8;endSize=8;" parent="1" target="houy_Up9C2UZ-9tv4yLi-65" edge="1">
                    <mxGeometry relative="1" as="geometry">
                        <mxPoint x="642" y="390" as="sourcePoint"/>
                    </mxGeometry>
                </mxCell>
                <mxCell id="KnMoUPqx_zOF8DZG7F0--1" value="FlashScopeにセット" style="html=1;align=left;spacingLeft=2;endArrow=block;rounded=0;edgeStyle=orthogonalEdgeStyle;curved=0;rounded=0;fontSize=12;startSize=8;endSize=8;" parent="1" edge="1">
                    <mxGeometry x="0.275" relative="1" as="geometry">
                        <mxPoint x="118" y="423" as="sourcePoint"/>
                        <Array as="points">
                            <mxPoint x="121" y="423"/>
                            <mxPoint x="151" y="423"/>
                            <mxPoint x="151" y="445"/>
                        </Array>
                        <mxPoint x="126" y="445" as="targetPoint"/>
                        <mxPoint as="offset"/>
                    </mxGeometry>
                </mxCell>
            </root>
        </mxGraphModel>
    </diagram>
</mxfile>